<svg xmlns="http://www.w3.org/2000/svg" viewBox="0 0 496.56 592.96"><defs><style>.cls-1{fill:#006dbe;}</style></defs><title>coronado_bridge_12</title><g id="Layer_2" data-name="Layer 2"><g id="Layer_1-2" data-name="Layer 1"><path class="cls-1" d="M392,68.44A184.75,184.75,0,0,0,248.28,0C146,0,63.14,82.89,63.14,185.14a184.62,184.62,0,0,0,60.2,136.62l3.29-64C73.56,207.76,165.49,143.83,392,68.44Z"/><path class="cls-1" d="M339.13,152.52l5.2,161.59q15.29,2.44,32,4.77A185.38,185.38,0,0,0,424,126.76q-48.37,13.19-87.6,25.76Z"/><path class="cls-1" d="M218.06,300.09q-8.52-2.43-16.35-4.94l-2.27,68.61A182.76,182.76,0,0,0,219.27,368Z"/><path class="cls-1" d="M288.13,316.64q-9.83-2-19.1-3.95l1.8,56.23q7.47-.92,14.73-2.39Z"/><path class="cls-1" d="M186,289.82a280.18,280.18,0,0,1-30.91-13.12l2.24,69.73a184.39,184.39,0,0,0,25.15,11.81Z"/><path class="cls-1" d="M144.83,271.08q-4.59-2.73-8.54-5.53l-2.16,65.37c3.85,3,7.84,5.88,11.93,8.6Z"/><path class="cls-1" d="M263.06,311.39l-4.67-1.05-2,59.76c2.58-.11,5.14-.28,7.69-.49Z"/><path class="cls-1" d="M204.61,207.34l-2.32,70q6.93,3.45,15.49,6.76l-1.5-83.65Q210,203.95,204.61,207.34Z"/><path class="cls-1" d="M233.35,289.63A557.3,557.3,0,0,0,288.78,304l7.09-137.72q-38.88,13.92-65.62,27Z"/><path class="cls-1" d="M311.86,160.63l-4.86,147q9.33,1.78,19.32,3.51L323.57,156.7Q317.6,158.68,311.86,160.63Z"/><path class="cls-1" d="M326.55,323.68q-10.23-1.74-20-3.52l-1.36,41.19a183.72,183.72,0,0,0,21.85-8.63Z"/><path class="cls-1" d="M249.39,370.27,252.55,309q-9.7-2.28-18.72-4.61l2.1,65.49c4.08.26,8.2.42,12.35.42Z"/><path class="cls-1" d="M187.11,268.29,189.69,218C167.76,236.34,166.7,253.12,187.11,268.29Z"/><path class="cls-1" d="M345.25,342.88a184.94,184.94,0,0,0,18.8-13.27q-9.85-1.46-19.32-2.95Z"/><path class="cls-1" d="M0,465c0-16.42,12.41-27.63,28.43-27.63,11.78,0,18.58,6.41,22.35,13.06L41,455.18a14.5,14.5,0,0,0-12.58-7.77c-9.69,0-16.74,7.45-16.74,17.54s7,17.54,16.74,17.54A14.33,14.33,0,0,0,41,474.72l9.77,4.73c-3.85,6.65-10.57,13.13-22.35,13.13C12.41,492.58,0,481.37,0,465Z"/><path class="cls-1" d="M60,465c0-16.1,11.78-27.63,27.88-27.63s28,11.53,28,27.63S104,492.58,87.84,492.58,60,481.05,60,465Zm44.13,0c0-10-6.4-17.54-16.25-17.54S71.66,454.94,71.66,465,78,482.49,87.84,482.49,104.09,474.88,104.09,465Z"/><path class="cls-1" d="M160.22,491.62l-10.49-19H141.4v19H130V438.2h25c11.13,0,17.94,7.29,17.94,17.22,0,9.45-5.93,14.5-11.7,15.86l12,20.34Zm1.12-36.2c0-4.48-3.44-7.21-8-7.21H141.4v14.42h11.94C157.9,462.63,161.34,459.91,161.34,455.42Z"/><path class="cls-1" d="M184.26,465c0-16.1,11.77-27.63,27.87-27.63s28,11.53,28,27.63-11.77,27.63-28,27.63S184.26,481.05,184.26,465Zm44.13,0c0-10-6.41-17.54-16.26-17.54S196,454.94,196,465s6.33,17.54,16.18,17.54S228.39,474.88,228.39,465Z"/><path class="cls-1" d="M291.16,491.62,265.7,456.78v34.84H254.32V438.2H266l24.74,33.56V438.2h11.38v53.42Z"/><path class="cls-1" d="M355.81,491.62l-3.28-9.05H329.62l-3.36,9.05h-13L334,438.2H348.2l20.59,53.42Zm-14.73-42.05-8.33,23h16.66Z"/><path class="cls-1" d="M379.93,491.62V438.2H401c16.74,0,28.36,10.65,28.36,26.75S417.73,491.62,401,491.62ZM417.73,465c0-9.45-5.77-16.74-16.74-16.74H391.3v33.4H401C411.56,481.61,417.73,474,417.73,465Z"/><path class="cls-1" d="M440.73,465c0-16.1,11.78-27.63,27.88-27.63s27.95,11.53,27.95,27.63-11.78,27.63-27.95,27.63S440.73,481.05,440.73,465Zm44.13,0c0-10-6.4-17.54-16.25-17.54s-16.18,7.53-16.18,17.54,6.32,17.54,16.18,17.54S484.86,474.88,484.86,465Z"/><path class="cls-1" d="M7.48,591.92V538.5H35.59C45.76,538.5,51,545,51,552.11c0,6.73-4.16,11.22-9.21,12.26,5.69.88,10.25,6.4,10.25,13.13,0,8-5.36,14.42-15.54,14.42Zm31.88-37.8c0-3.37-2.41-5.85-6.25-5.85H18.85v11.61H33.11C37,559.88,39.36,557.48,39.36,554.12Zm1,21.78c0-3.36-2.4-6.25-6.89-6.25H18.85v12.42H33.51C37.84,582.07,40.4,579.74,40.4,575.9Z"/><path class="cls-1" d="M132.53,591.92l-10.49-19h-8.33v19H102.33V538.5h25c11.13,0,17.94,7.29,17.94,17.22,0,9.45-5.92,14.49-11.69,15.86l12,20.34Zm1.12-36.2c0-4.49-3.45-7.21-8-7.21H113.71v14.42h11.93C130.2,562.93,133.65,560.2,133.65,555.72Z"/><path class="cls-1" d="M195.26,591.92V538.5h11.38v53.42Z"/><path class="cls-1" d="M258.85,591.92V538.5h21.07c16.74,0,28.35,10.65,28.35,26.75s-11.61,26.67-28.35,26.67Zm37.81-26.67c0-9.45-5.77-16.74-16.74-16.74h-9.69v33.4h9.69C290.49,581.91,296.66,574.3,296.66,565.25Z"/><path class="cls-1" d="M354.9,565.25c0-16.9,12.81-27.63,28.43-27.63,11.13,0,18.1,5.6,22.11,11.93L396,554.68a15.13,15.13,0,0,0-12.66-7c-9.69,0-16.74,7.45-16.74,17.54s7.05,17.54,16.74,17.54a18,18,0,0,0,11.37-4.09v-6.4H380.61v-9.93h25.47v20.5A29.66,29.66,0,0,1,383.33,593C367.71,593,354.9,582.07,354.9,565.25Z"/><path class="cls-1" d="M457.11,591.92V538.5h37.8v10H468.48V559.8h25.87v10H468.48v12.1h26.43v10Z"/><rect class="cls-1" x="3.74" y="509.78" width="492" height="9.44"/></g></g></svg>