<svg xmlns="http://www.w3.org/2000/svg" viewBox="0 0 1211.31 370.29"><defs><style>.cls-1{fill:#006dbe;}</style></defs><title>Asset 10</title><g id="Layer_2" data-name="Layer 2"><g id="Layer_1-2" data-name="Layer 1"><path class="cls-1" d="M328.87,68.44A184.77,184.77,0,0,0,185.14,0C82.89,0,0,82.89,0,185.14A184.66,184.66,0,0,0,60.2,321.76l3.3-64C10.43,207.76,102.36,143.83,328.87,68.44Z"/><path class="cls-1" d="M276,152.52l5.19,161.59q15.3,2.44,32,4.77a185.31,185.31,0,0,0,47.71-192.12q-48.37,13.19-87.6,25.76Z"/><path class="cls-1" d="M154.92,300.09q-8.52-2.43-16.35-4.94l-2.27,68.61A183.45,183.45,0,0,0,156.14,368Z"/><path class="cls-1" d="M225,316.64q-9.84-2-19.11-3.95l1.81,56.23q7.45-.92,14.73-2.39Z"/><path class="cls-1" d="M122.86,289.82A280,280,0,0,1,92,276.7l2.24,69.73a184.83,184.83,0,0,0,25.14,11.81Z"/><path class="cls-1" d="M81.7,271.08q-4.59-2.73-8.54-5.53L71,330.92q5.79,4.53,11.93,8.6Z"/><path class="cls-1" d="M199.93,311.39l-4.68-1.05-2,59.76c2.58-.11,5.15-.28,7.7-.49Z"/><path class="cls-1" d="M141.47,207.34l-2.31,70q6.93,3.45,15.48,6.76l-1.49-83.65Q146.87,203.95,141.47,207.34Z"/><path class="cls-1" d="M170.22,289.63A555.85,555.85,0,0,0,225.65,304l7.09-137.72q-38.88,13.92-65.62,27Z"/><path class="cls-1" d="M248.73,160.63l-4.87,147c6.23,1.19,12.66,2.36,19.33,3.51L260.43,156.7Q254.46,158.68,248.73,160.63Z"/><path class="cls-1" d="M263.41,323.68q-10.23-1.74-20-3.52l-1.37,41.19a183,183,0,0,0,21.85-8.63Z"/><path class="cls-1" d="M186.26,370.27,189.41,309q-9.71-2.28-18.72-4.61l2.11,65.49c4.08.26,8.19.42,12.34.42Z"/><path class="cls-1" d="M124,268.29,126.56,218C104.62,236.34,103.56,253.12,124,268.29Z"/><path class="cls-1" d="M282.12,342.88a184.8,184.8,0,0,0,18.79-13.27c-6.56-1-13-1.95-19.31-2.95Z"/><path class="cls-1" d="M435.32,98.67c0-25.65,19.4-43.18,44.43-43.18,18.4,0,29,10,34.92,20.41L499.4,83.41a22.61,22.61,0,0,0-19.65-12.14c-15.14,0-26.16,11.64-26.16,27.4s11,27.42,26.16,27.42a22.37,22.37,0,0,0,19.65-12.15l15.27,7.39c-6,10.39-16.52,20.53-34.92,20.53C454.72,141.86,435.32,124.33,435.32,98.67Z"/><path class="cls-1" d="M529,98.67c0-25.15,18.4-43.18,43.56-43.18s43.68,18,43.68,43.18-18.4,43.19-43.68,43.19S529,123.83,529,98.67Zm69,0c0-15.64-10-27.4-25.4-27.4S547.3,83,547.3,98.67s9.89,27.42,25.29,27.42S598,114.2,598,98.67Z"/><path class="cls-1" d="M685.71,140.35l-16.4-29.66h-13v29.66H638.52V56.87h39.05c17.4,0,28,11.39,28,26.91,0,14.77-9.26,22.66-18.28,24.78l18.78,31.79Zm1.75-56.57c0-7-5.38-11.26-12.52-11.26H656.29V95.05h18.65C682.08,95.05,687.46,90.79,687.46,83.78Z"/><path class="cls-1" d="M723.27,98.67c0-25.15,18.4-43.18,43.55-43.18s43.68,18,43.68,43.18-18.4,43.19-43.68,43.19S723.27,123.83,723.27,98.67Zm69,0c0-15.64-10-27.4-25.41-27.4S741.54,83,741.54,98.67s9.89,27.42,25.28,27.42S792.23,114.2,792.23,98.67Z"/><path class="cls-1" d="M890.33,140.35l-39.8-54.44v54.44H832.76V56.87H851l38.68,52.44V56.87h17.77v83.48Z"/><path class="cls-1" d="M991.36,140.35l-5.13-14.14h-35.8l-5.25,14.14H924.9l32.29-83.48h22.28l32.17,83.48Zm-23-65.71-13,35.93h26Z"/><path class="cls-1" d="M1029.05,140.35V56.87H1062c26.15,0,44.3,16.65,44.3,41.8s-18.15,41.68-44.3,41.68Zm59.07-41.68c0-14.76-9-26.15-26.15-26.15h-15.15v52.19H1062C1078.49,124.71,1088.12,112.82,1088.12,98.67Z"/><path class="cls-1" d="M1124.07,98.67c0-25.15,18.4-43.18,43.56-43.18s43.68,18,43.68,43.18-18.4,43.19-43.68,43.19S1124.07,123.83,1124.07,98.67Zm69,0c0-15.64-10-27.4-25.4-27.4s-25.29,11.76-25.29,27.4,9.89,27.42,25.29,27.42S1193,114.2,1193,98.67Z"/><path class="cls-1" d="M447,297.09V213.61h43.93c15.9,0,24,10.14,24,21.28,0,10.51-6.51,17.52-14.39,19.15,8.89,1.37,16,10,16,20.52,0,12.52-8.39,22.53-24.28,22.53ZM496.82,238c0-5.25-3.75-9.13-9.76-9.13H464.78V247h22.28C493.07,247,496.82,243.27,496.82,238Zm1.63,34.05c0-5.26-3.75-9.76-10.76-9.76H464.78v19.4h22.91C494.45,281.7,498.45,278.07,498.45,272.06Z"/><path class="cls-1" d="M642.43,297.09,626,267.43H613v29.66H595.24V213.61h39c17.4,0,28,11.39,28,26.91,0,14.77-9.27,22.65-18.28,24.78l18.78,31.79Zm1.75-56.57c0-7-5.38-11.27-12.52-11.27H613v22.53h18.65C638.8,251.78,644.18,247.53,644.18,240.52Z"/><path class="cls-1" d="M740.46,297.09V213.61h17.78v83.48Z"/><path class="cls-1" d="M839.84,297.09V213.61h32.92c26.16,0,44.31,16.65,44.31,41.8s-18.15,41.68-44.31,41.68Zm59.08-41.68c0-14.77-9-26.16-26.16-26.16H857.61v52.2h15.15C889.28,281.45,898.92,269.55,898.92,255.41Z"/><path class="cls-1" d="M989.93,255.41c0-26.41,20-43.18,44.44-43.18,17.39,0,28.28,8.76,34.54,18.65l-14.77,8A23.64,23.64,0,0,0,1034.37,228c-15.15,0-26.16,11.64-26.16,27.41s11,27.41,26.16,27.41c7.38,0,14.39-3.25,17.77-6.38v-10h-22V250.91h39.8v32a46.34,46.34,0,0,1-35.54,15.77C1010,298.72,989.93,281.7,989.93,255.41Z"/><path class="cls-1" d="M1149.66,297.09V213.61h59.08v15.64h-41.3V246.9h40.42v15.65h-40.42v18.9h41.3v15.64Z"/><rect class="cls-1" x="441.17" y="168.73" width="768.86" height="14.75"/></g></g></svg>